<svg width="61" height="60" viewBox="0 0 61 60" fill="none" xmlns="http://www.w3.org/2000/svg">
<path d="M0 0V60H60.2307V0H0ZM5.47551 5.45455H54.7551V54.5455H5.47551V5.45455ZM10.951 17.3727V40.8545H22.3949C26.6658 40.8273 30.6903 38.7818 30.6903 34.0091C30.6903 31.0364 29.2666 28.5273 26.392 27.7091C28.5001 26.6727 29.5952 25.5273 29.5952 23.1818C29.5952 18.4909 26.1182 17.3727 22.0663 17.3727H10.951ZM35.9741 19.0909V21.4091H45.5015V19.0909H35.9741ZM16.1528 20.9727H21.026C22.8603 20.9727 24.5577 21.4909 24.5577 23.6455C24.5577 25.6364 23.2436 26.4545 21.3819 26.4545H16.1528V20.9727ZM40.9568 22.9909C35.7825 22.9909 32.2508 26.8364 32.2508 31.9636C32.2508 37.2545 35.5635 40.9091 40.9568 40.9091C45.0361 40.9091 47.6917 39.0818 48.9511 35.1818H44.8171C44.3517 36.6273 42.5447 37.3909 41.1211 37.3909C38.356 37.3909 36.9323 35.7818 36.9323 33.0818H49.2249C49.2522 32.8091 49.2796 32.4818 49.2796 32.1818C49.2796 27.1636 46.2955 22.9909 40.9568 22.9909ZM40.7926 26.4818C43.1744 26.4818 44.3517 27.8727 44.5433 30.1364H36.9323C37.0692 27.9 38.5476 26.4818 40.7926 26.4818ZM16.1254 30.3545H21.7925C24.0649 30.3545 25.5159 31.3091 25.5159 33.7364C25.5159 36.0818 23.7911 36.8182 21.683 36.8182H16.1254V30.3545Z" fill="black"/>
</svg>
