<svg width="75" height="60" viewBox="0 0 75 60" fill="none" xmlns="http://www.w3.org/2000/svg">
<path d="M69.7469 17.8452V18.2815V48.4615C69.7469 50.3643 68.9881 52.1889 67.6378 53.534C66.2875 54.8791 64.4564 55.6346 62.5472 55.6346H11.5828C9.67365 55.6346 7.84248 54.8791 6.49221 53.534C5.1419 52.1889 4.38313 50.3643 4.38313 48.4615V18.2908V17.8545L4.75951 18.0751L36.004 36.3827L36.3635 36.5487C36.6478 36.6515 36.9513 36.6909 37.2526 36.6641C37.5571 36.6371 37.8518 36.5431 38.1154 36.3889L69.7469 17.8452ZM69.7469 17.8452L69.3705 18.0659L38.1156 36.3888L69.7469 17.8452ZM4.38313 12.9323V13.0756L4.50672 13.148L36.9386 32.1542L37.065 32.2282L37.1915 32.1541L69.6234 13.1387L69.7469 13.0663V12.9231V11.5385C69.7469 9.63573 68.9881 7.81113 67.6378 6.46599C66.2875 5.12088 64.4564 4.36538 62.5472 4.36538H11.5828C9.67365 4.36538 7.84248 5.12088 6.49221 6.46599C5.1419 7.81113 4.38313 9.63573 4.38313 11.5385V12.9323ZM62.5472 0.25C65.5532 0.25 68.4358 1.43955 70.5611 3.55665C72.6863 5.67372 73.88 8.54489 73.88 11.5385V48.4615C73.88 51.4551 72.6863 54.3263 70.5611 56.4433C68.4358 58.5605 65.5532 59.75 62.5472 59.75H11.5828C8.57686 59.75 5.69421 58.5605 3.56897 56.4433C1.44376 54.3263 0.25 51.4551 0.25 48.4615V11.5385C0.25 8.54489 1.44376 5.67372 3.56897 3.55665C5.69421 1.43955 8.57686 0.25 11.5828 0.25H62.5472Z" fill="black" stroke="black" stroke-width="0.5"/>
</svg>
