<svg width="35" height="62" viewBox="0 0 35 62" fill="none" xmlns="http://www.w3.org/2000/svg">
<path d="M22.134 27.6329C22.134 25.7457 20.6404 24.1959 18.6039 24.1959C13.9191 24.1959 4.41352 38.7538 4.41352 44.4823C4.41352 46.2349 5.43162 47.65 6.65387 47.65C11.1349 47.65 22.134 36.7991 22.134 27.6329ZM16.0916 7.9529C16.9065 5.86324 17.3817 4.78522 17.3817 3.84136C17.3817 3.03271 16.363 2.49371 14.3942 2.08911C13.9865 2.02162 13.6472 1.54984 13.6472 1.21298C13.6472 0.741194 13.9865 0.336562 14.3942 0.336562C16.7707 0.336562 17.2459 0.336562 18.8072 0.269374C20.5046 0.201892 21.6589 0 22.3379 0C23.3563 0 23.5601 0.201892 23.5601 0.943314C23.5601 1.9544 22.7456 3.16738 22.2021 4.38063C20.0975 9.09866 16.6346 17.1862 13.3075 24.1958C13.1042 24.5999 13.1042 24.937 13.1042 25.0045C13.1042 25.2066 13.24 25.2738 13.3075 25.2738C13.4433 25.2738 13.6472 25.2067 13.9191 24.8698C16.6346 22.039 19.4862 20.8257 22.2021 20.8257C24.9859 20.8257 27.5659 23.5888 27.5659 26.8242C27.5659 36.7316 15.1408 49.4697 4.68485 49.4697C1.96902 49.4697 0 47.4481 0 44.752C0 39.967 11.5426 19.68 16.0916 7.9529Z" fill="black"/>
<path d="M34.429 35.6192C34.429 34.2035 33.1389 33.058 31.5773 33.058C28.3861 33.058 23.4973 36.1579 19.0844 40.9437C18.745 41.2803 18.3373 41.6849 18.066 41.6849C17.9301 41.6849 17.7943 41.5502 17.7943 41.2803C17.7943 41.0784 17.8621 40.8085 17.9301 40.4716C18.3179 39.2314 18.677 38.1289 18.8887 37.2635C17.0906 40.1348 14.774 42.7199 12.5381 44.5947C12.0556 45.6103 11.6139 46.5258 11.344 47.1441C9.64658 50.9858 5.7088 59.0733 5.7088 60.2866C5.7088 61.163 6.45531 61.5001 7.54204 61.5001C9.44303 61.5001 10.054 61.2977 11.2763 57.9953C16.2327 44.448 24.9912 36.1579 28.3186 36.1579C29.0651 36.1579 29.676 36.8322 29.676 37.7083C29.676 38.0454 29.4044 38.9888 28.9293 40.202C26.7567 45.3244 20.5099 56.9168 20.5099 60.0172C20.5099 61.0955 21.4608 61.9716 22.6828 61.9716C24.3802 61.9716 25.9418 61.3649 27.4357 60.4215C30.8306 58.2647 31.5093 57.5907 32.5277 56.5796C32.7315 56.3775 32.8671 55.9056 32.8671 55.7038C32.8671 55.2317 32.5277 54.8946 32.0525 54.8946C31.9167 54.8946 31.6454 55.0298 31.3057 55.367C29.1331 57.5235 27.707 58.3994 26.6886 58.3994C26.2815 58.3994 26.0096 57.5907 26.0096 57.1867C26.0096 55.5686 28.7938 50.8511 33.4786 40.202C34.0213 38.9887 34.429 37.1018 34.429 35.6192Z" fill="black"/>
</svg>
