<svg width="61" height="60" viewBox="0 0 61 60" fill="none" xmlns="http://www.w3.org/2000/svg">
<path d="M30.1153 15.6C27.2563 15.6 24.4615 16.4445 22.0844 18.0268C19.7072 19.6091 17.8544 21.8581 16.7603 24.4894C15.6662 27.1206 15.38 30.016 15.9377 32.8093C16.4955 35.6026 17.8722 38.1685 19.8938 40.1823C21.9155 42.1962 24.4912 43.5677 27.2952 44.1233C30.0993 44.6789 33.0058 44.3938 35.6472 43.3039C38.2885 42.214 40.5461 40.3683 42.1345 38.0002C43.7229 35.6321 44.5707 32.8481 44.5707 30C44.5707 26.1809 43.0477 22.5182 40.3368 19.8177C37.6259 17.1171 33.9491 15.6 30.1153 15.6ZM30.1153 39.6C28.2093 39.6 26.3461 39.037 24.7614 37.9821C23.1766 36.9272 21.9414 35.4279 21.212 33.6738C20.4826 31.9196 20.2917 29.9894 20.6636 28.1271C21.0354 26.2649 21.9533 24.5544 23.301 23.2118C24.6488 21.8692 26.3659 20.9549 28.2353 20.5845C30.1046 20.214 32.0423 20.4042 33.8032 21.1308C35.5641 21.8574 37.0692 23.0878 38.1281 24.6665C39.187 26.2452 39.7522 28.1013 39.7522 30C39.7443 32.5436 38.7264 34.9809 36.9209 36.7795C35.1153 38.5781 32.6688 39.5921 30.1153 39.6ZM43.3661 0H16.8646C12.3918 0 8.10224 1.76999 4.93952 4.92061C1.7768 8.07122 0 12.3444 0 16.8V43.2C0 47.6556 1.7768 51.9288 4.93952 55.0794C8.10224 58.23 12.3918 60 16.8646 60H43.3661C47.8388 60 52.1284 58.23 55.2911 55.0794C58.4539 51.9288 60.2307 47.6556 60.2307 43.2V16.8C60.2307 12.3444 58.4539 8.07122 55.2911 4.92061C52.1284 1.76999 47.8388 0 43.3661 0ZM55.4122 43.2C55.4122 44.7759 55.1006 46.3363 54.4952 47.7922C53.8899 49.2481 53.0026 50.571 51.884 51.6853C50.7654 52.7996 49.4374 53.6835 47.9759 54.2866C46.5144 54.8896 44.948 55.2 43.3661 55.2H16.8646C15.2827 55.2 13.7162 54.8896 12.2547 54.2866C10.7932 53.6835 9.46527 52.7996 8.34668 51.6853C7.2281 50.571 6.34078 49.2481 5.73541 47.7922C5.13003 46.3363 4.81845 44.7759 4.81845 43.2V16.8C4.81845 13.6174 6.08759 10.5652 8.34668 8.31472C10.6058 6.06428 13.6698 4.8 16.8646 4.8H43.3661C44.948 4.8 46.5144 5.11039 47.9759 5.71345C49.4374 6.3165 50.7654 7.20042 51.884 8.31472C53.0026 9.42902 53.8899 10.7519 54.4952 12.2078C55.1006 13.6637 55.4122 15.2241 55.4122 16.8V43.2ZM49.3891 14.4C49.3891 15.112 49.1772 15.808 48.7801 16.4001C48.383 16.9921 47.8186 17.4535 47.1583 17.726C46.4979 17.9984 45.7713 18.0697 45.0703 17.9308C44.3693 17.7919 43.7253 17.4491 43.2199 16.9456C42.7145 16.4421 42.3703 15.8007 42.2309 15.1023C42.0915 14.404 42.163 13.6802 42.4365 13.0223C42.7101 12.3645 43.1733 11.8023 43.7676 11.4067C44.3619 11.0111 45.0605 10.8 45.7753 10.8C46.7337 10.8 47.6529 11.1793 48.3307 11.8544C49.0084 12.5295 49.3891 13.4452 49.3891 14.4Z" fill="black"/>
</svg>
